<?xml version="1.0" encoding="UTF-8" standalone="no"?>
<svg
   version="1.0"
   width="300.000000pt"
   height="300.000000pt"
   viewBox="0 0 300.000000 300.000000"
   preserveAspectRatio="xMidYMid meet"
   id="svg3"
   sodipodi:docname="logo.svg"
   inkscape:version="1.4 (e7c3feb100, 2024-10-09)"
   xmlns:inkscape="http://www.inkscape.org/namespaces/inkscape"
   xmlns:sodipodi="http://sodipodi.sourceforge.net/DTD/sodipodi-0.dtd"
   xmlns="http://www.w3.org/2000/svg"
   xmlns:svg="http://www.w3.org/2000/svg">
  <defs
     id="defs3" />
  <sodipodi:namedview
     id="namedview3"
     pagecolor="#ffffff"
     bordercolor="#000000"
     borderopacity="0.25"
     inkscape:showpageshadow="2"
     inkscape:pageopacity="0.0"
     inkscape:pagecheckerboard="0"
     inkscape:deskcolor="#d1d1d1"
     inkscape:document-units="pt"
     inkscape:zoom="1.375"
     inkscape:cx="152"
     inkscape:cy="199.63636"
     inkscape:window-width="1290"
     inkscape:window-height="1028"
     inkscape:window-x="0"
     inkscape:window-y="0"
     inkscape:window-maximized="1"
     inkscape:current-layer="g3" />
  <metadata
     id="metadata1">
Created by potrace 1.10, written by Peter Selinger 2001-2011
</metadata>
  <g
     transform="translate(0.000000,300.000000) scale(0.100000,-0.100000)"
     fill="#000000"
     stroke="none"
     id="g3">
    <path
       d="M1021 2944 c-233 -62 -407 -272 -430 -516 l-6 -70 -63 -24 c-305 -114 -462 -478 -338 -786 l25 -61 -47 -52 c-179 -196 -176 -522 7 -713 39 -41 48 -58 59 -113 43 -207 201 -355 413 -384 45 -6 62 -15 104 -53 89 -80 230 -132 360 -132 127 0 252 43 356 123 l45 34 44 -35 c115 -88 242 -127 385 -119 135 8 238 49 335 134 38 34 56 41 118 52 192 31 348 180 388 372 13 62 22 79 62 124 92 101 132 209 132 355 0 143 -43 257 -131 354 l-49 54 24 53 c122 268 -11 631 -282 767 -42 21 -87 41 -100 44 -18 5 -22 13 -22 45 0 61 -36 187 -72 256 -18 34 -63 94 -101 133 -109 115 -244 174 -400 174 -105 0 -169 -15 -261 -61 l-80 -40 -66 35 c-37 20 -93 42 -126 51 -72 19 -211 18 -283 -1z m260 -123 c34 -11 84 -35 110 -53 l49 -33 0 -127 0 -128 60 0 60 0 0 128 0 127 49 33 c60 41 156 72 225 72 106 0 237 -53 303 -122 l27 -28 -114 0 -114 0 -48 -47 -48 -47 0 -113 0 -113 55 0 55 0 0 105 0 105 144 0 145 0 19 -52 c11 -29 23 -72 26 -94 l7 -41 -68 -53 c-37 -30 -72 -57 -77 -61 -8 -7 81 -138 95 -139 4 0 35 23 69 50 70 56 68 56 168 8 165 -78 283 -297 257 -477 -8 -58 -33 -149 -43 -155 -10 -6 -116 22 -120 32 -1 4 -24 48 -50 97 l-48 90 -137 3 -137 3 33 -60 32 -59 67 5 67 6 38 -77 38 -77 -35 -67 -35 -67 -73 -3 -72 -3 -27 -52 c-16 -29 -29 -55 -31 -59 -2 -5 57 -8 132 -8 l135 0 48 93 c45 87 50 92 77 89 73 -8 179 -91 222 -173 63 -122 57 -301 -13 -413 l-26 -40 -68 137 -69 137 -115 0 c-63 0 -115 -2 -115 -4 0 -10 53 -96 65 -106 9 -8 32 -11 59 -8 52 6 55 4 82 -42 18 -31 19 -39 7 -56 -12 -18 -10 -27 9 -70 18 -39 23 -67 23 -134 0 -96 -18 -145 -79 -216 -34 -40 -126 -96 -178 -108 -28 -6 -28 -6 -28 42 0 45 7 60 84 173 l84 125 -72 132 -71 132 -73 0 c-40 0 -71 -3 -69 -8 2 -4 34 -57 70 -118 37 -62 67 -117 67 -123 0 -6 -19 -40 -43 -76 l-42 -65 -145 0 -145 0 -23 35 c-22 35 -23 35 -93 35 -53 0 -68 -3 -63 -12 4 -7 35 -52 68 -101 l60 -87 133 0 133 0 0 -64 c0 -62 -1 -65 -41 -101 -23 -20 -71 -51 -108 -69 -62 -29 -73 -31 -181 -31 -109 0 -118 2 -180 32 -36 18 -86 51 -112 73 l-48 42 0 159 0 159 -60 0 -60 0 0 -164 0 -165 -42 -34 c-97 -77 -179 -107 -293 -107 -114 0 -196 30 -292 108 -42 34 -43 35 -43 98 l0 64 135 0 134 0 59 88 c32 48 62 93 66 100 5 9 -9 12 -62 12 -68 0 -70 -1 -93 -35 l-24 -35 -141 0 -141 0 -41 59 c-23 32 -44 66 -47 74 -4 8 25 66 64 131 39 64 71 119 71 122 0 3 -32 4 -71 2 l-71 -3 -69 -125 c-38 -69 -68 -128 -69 -131 0 -4 36 -61 80 -127 74 -111 80 -123 80 -171 0 -50 -1 -52 -22 -46 -103 31 -182 96 -228 188 -40 79 -42 182 -6 269 21 51 22 58 8 72 -15 14 -14 19 5 53 21 37 24 38 82 41 l60 3 31 53 c16 29 30 56 30 60 0 3 -51 6 -114 6 l-113 0 -68 -136 c-77 -154 -72 -152 -123 -44 -23 48 -26 69 -26 160 -1 98 1 110 31 172 50 105 150 191 236 200 26 3 32 -4 76 -87 l48 -90 132 -3 132 -3 -32 61 -32 60 -67 0 -68 0 -37 72 -38 72 38 74 38 75 66 -6 66 -5 33 59 33 60 -138 -3 -138 -3 -51 -99 -52 -100 -53 -13 c-49 -13 -55 -12 -66 4 -35 47 -53 205 -34 293 34 159 163 306 313 356 l49 16 52 -44 c29 -25 57 -47 63 -51 6 -3 34 23 64 60 50 63 52 67 34 80 -114 83 -134 103 -133 135 0 18 10 60 22 93 l22 60 148 3 147 3 0 -106 0 -105 55 0 55 0 0 112 0 112 -47 48 -47 48 -115 0 -115 0 27 28 c98 103 276 147 418 103z"
       id="path1"
       style="fill:#ffffff" />
    <path
       d="M1390 2276 c-129 -37 -233 -124 -291 -241 -32 -65 -34 -78 -38 -182 l-3 -113 -40 0 c-28 0 -46 -7 -63 -25 l-25 -24 0 -430 c0 -294 4 -438 11 -454 6 -14 22 -30 36 -36 35 -16 1012 -15 1048 1 16 7 29 24 36 47 6 23 9 185 7 459 l-3 424 -24 19 c-13 10 -38 19 -57 19 l-34 0 0 53 c0 212 -94 372 -265 453 -65 32 -87 37 -163 40 -53 2 -105 -2 -132 -10z m242 -136 c122 -57 185 -158 195 -308 l6 -92 -67 0 -66 0 0 73 c0 128 -68 214 -178 225 -135 12 -221 -76 -222 -225 l0 -73 -66 0 -67 0 6 90 c11 168 83 269 230 322 66 24 165 18 229 -12z m-72 -245 c19 -20 25 -40 28 -91 l4 -65 -88 3 -89 3 1 63 c1 51 5 67 24 87 32 35 88 34 120 0z m388 -648 l2 -367 -447 2 -448 3 -3 355 c-1 195 0 361 3 368 3 10 97 12 447 10 l443 -3 3 -368z"
       id="path2"
       style="fill:#ffffff" />
    <path
       d="M1453 1490 c-46 -11 -100 -54 -123 -100 -42 -82 -13 -188 67 -245 41 -29 42 -32 42 -87 l1 -58 60 0 60 0 0 59 c0 56 2 60 34 79 116 68 129 229 26 315 -30 25 -89 48 -120 46 -8 -1 -30 -5 -47 -9z m102 -135 c52 -51 16 -138 -57 -138 -39 0 -78 41 -78 84 0 40 39 79 80 79 19 0 40 -9 55 -25z"
       id="path3"
       style="fill:#ffffff" />
  </g>
</svg>
